<svg xmlns="http://www.w3.org/2000/svg" width="186" height="183" viewBox="0 0 186 183">
  <g id="dont-have-file" transform="translate(-663 -444)">
    <circle id="Ellipse_505" data-name="Ellipse 505" cx="57.5" cy="57.5" r="57.5" transform="translate(689 475)" fill="#e5efef"/>
    <path id="Path_2708" data-name="Path 2708" d="M73,0A73,73,0,1,1,0,73,73,73,0,0,1,73,0Z" transform="translate(663 444)" fill="#f1f1f6"/>
    <g id="Group_2840" data-name="Group 2840" transform="translate(762.792 478.062)">
      <path id="Path_2701" data-name="Path 2701" d="M150.525,75.185a2.652,2.652,0,0,1-1.88-.779l-7.521-7.521a2.659,2.659,0,0,1,3.761-3.761l7.521,7.521a2.66,2.66,0,0,1-1.88,4.54Z" transform="translate(-140.344 -47.488)" fill="#bfbfbf"/>
      <path id="Path_2702" data-name="Path 2702" d="M143,75.185a2.66,2.66,0,0,1-1.88-4.54l7.521-7.521a2.659,2.659,0,0,1,3.761,3.761l-7.521,7.521a2.649,2.649,0,0,1-1.88.779Z" transform="translate(-140.344 -47.488)" fill="#bfbfbf"/>
      <circle id="Ellipse_507" data-name="Ellipse 507" cx="3" cy="3" r="3" transform="translate(33.208 28.938)" fill="#bfbfbf"/>
      <circle id="Ellipse_508" data-name="Ellipse 508" cx="2.5" cy="2.5" r="2.5" transform="translate(25.208 -0.062)" fill="#bfbfbf"/>
    </g>
    <g id="Group_2841" data-name="Group 2841" transform="translate(713.36 608.383)">
      <path id="Path_2703" data-name="Path 2703" d="M184.363,253.3H77.979A7.979,7.979,0,0,1,70,245.319V240H192.342v5.319A7.979,7.979,0,0,1,184.363,253.3Z" transform="translate(-67.34 -237.34)" fill="#e2e2e2"/>
      <path id="Path_2704" data-name="Path 2704" d="M183.023,254.617H76.638A10.651,10.651,0,0,1,66,243.979V238.66A2.66,2.66,0,0,1,68.66,236H191a2.66,2.66,0,0,1,2.66,2.66v5.319A10.651,10.651,0,0,1,183.023,254.617Zm-111.7-13.3v2.66a5.325,5.325,0,0,0,5.319,5.319H183.023a5.325,5.325,0,0,0,5.319-5.319v-2.66Z" transform="translate(-66 -236)" fill="#bfbfbf"/>
    </g>
    <g id="Group_2842" data-name="Group 2842" transform="translate(702.722 504.492)">
      <path id="Path_2705" data-name="Path 2705" d="M91.74,192.96h93.276a9.835,9.835,0,0,0,9.944-9.722V110.512a10.638,10.638,0,0,0-10.638-10.638h-77.7l-5.9-12.24A9.556,9.556,0,0,0,93,83.75H63.368A9.265,9.265,0,0,0,54,92.908v90.33a9.834,9.834,0,0,0,9.944,9.722H78" transform="translate(-51.34 -81.09)" fill="#f1f1f6"/>
      <path id="Path_2706" data-name="Path 2706" d="M183.675,194.279H90.4a2.66,2.66,0,0,1,0-5.319h93.276a7.183,7.183,0,0,0,7.284-7.062V109.172a7.988,7.988,0,0,0-7.979-7.979h-77.7a2.661,2.661,0,0,1-2.4-1.505l-5.787-12a6.913,6.913,0,0,0-5.439-2.617H62.027a6.614,6.614,0,0,0-6.708,6.5V181.9A7.183,7.183,0,0,0,62.6,188.96h14.06a2.66,2.66,0,0,1,0,5.319H62.6A12.508,12.508,0,0,1,50,181.9V91.567A11.936,11.936,0,0,1,62.027,79.75H91.66a12.242,12.242,0,0,1,9.868,4.975,2.607,2.607,0,0,1,.248.414l5.175,10.735H182.98a13.314,13.314,0,0,1,13.3,13.3V181.9a12.508,12.508,0,0,1-12.6,12.381Z" transform="translate(-50 -79.75)" fill="#bfbfbf"/>
    </g>
    <path id="Path_2707" data-name="Path 2707" d="M123.277,109.319H104.66a2.66,2.66,0,0,1,0-5.319h18.617a2.66,2.66,0,1,1,0,5.319Z" transform="translate(635.297 416.616)" fill="#bfbfbf"/>
  </g>
</svg>
